<svg width="40" height="40" viewBox="0 0 40 40" fill="none" xmlns="http://www.w3.org/2000/svg">
<circle cx="20" cy="20" r="20" fill="#D9D9D9"/>
<path d="M24 15C24 16.0609 23.5786 17.0783 22.8284 17.8284C22.0783 18.5786 21.0609 19 20 19C18.9391 19 17.9217 18.5786 17.1716 17.8284C16.4214 17.0783 16 16.0609 16 15C16 13.9391 16.4214 12.9217 17.1716 12.1716C17.9217 11.4214 18.9391 11 20 11C21.0609 11 22.0783 11.4214 22.8284 12.1716C23.5786 12.9217 24 13.9391 24 15ZM20 22C18.1435 22 16.363 22.7375 15.0503 24.0503C13.7375 25.363 13 27.1435 13 29H27C27 27.1435 26.2625 25.363 24.9497 24.0503C23.637 22.7375 21.8565 22 20 22Z" stroke="white" stroke-width="2" stroke-linecap="round" stroke-linejoin="round"/>
</svg>
