<svg width="21" height="21" viewBox="0 0 21 21" fill="none" xmlns="http://www.w3.org/2000/svg">
<path fill-rule="evenodd" clip-rule="evenodd" d="M15.5776 12.8395C15.39 13.0269 15.1357 13.1323 14.8706 13.1323C14.6054 13.1323 14.3511 13.0269 14.1636 12.8395L10.8706 9.54648L7.57755 12.8395C7.38895 13.0216 7.13635 13.1224 6.87415 13.1202C6.61196 13.1179 6.36114 13.0127 6.17574 12.8273C5.99033 12.6419 5.88516 12.3911 5.88288 12.1289C5.8806 11.8667 5.9814 11.6141 6.16356 11.4255L10.1636 7.42548C10.3511 7.23801 10.6054 7.13269 10.8706 7.13269C11.1357 7.13269 11.39 7.23801 11.5776 7.42548L15.5776 11.4255C15.765 11.613 15.8703 11.8673 15.8703 12.1325C15.8703 12.3976 15.765 12.6519 15.5776 12.8395Z" fill="#CDCCCA"/>
</svg>
