<svg width="21" height="21" viewBox="0 0 21 21" fill="none" xmlns="http://www.w3.org/2000/svg">
<path d="M14.3306 4.36601C14.5151 4.17499 14.7358 4.02262 14.9798 3.91781C15.2238 3.81299 15.4862 3.75782 15.7518 3.75551C16.0173 3.7532 16.2807 3.8038 16.5265 3.90437C16.7723 4.00493 16.9956 4.15343 17.1834 4.34122C17.3711 4.529 17.5196 4.75231 17.6202 4.9981C17.7208 5.24389 17.7714 5.50725 17.7691 5.77281C17.7668 6.03837 17.7116 6.30081 17.6068 6.54482C17.502 6.78883 17.3496 7.00951 17.1586 7.19401L16.3656 7.98701L13.5376 5.15901L14.3306 4.36601ZM12.1236 6.57301L3.74457 14.952V17.78H6.57257L14.9526 9.40101L12.1236 6.57301Z" fill="#979797"/>
</svg>

