<svg width="21" height="21" viewBox="0 0 21 21" fill="none" xmlns="http://www.w3.org/2000/svg">
<path fill-rule="evenodd" clip-rule="evenodd" d="M5.34039 8.00719C5.52792 7.81972 5.78223 7.71441 6.04739 7.71441C6.31256 7.71441 6.56687 7.81972 6.75439 8.00719L10.0474 11.3002L13.3404 8.00719C13.4326 7.91168 13.543 7.8355 13.665 7.78309C13.787 7.73068 13.9182 7.7031 14.051 7.70194C14.1838 7.70079 14.3155 7.72609 14.4383 7.77637C14.5612 7.82665 14.6729 7.9009 14.7668 7.9948C14.8607 8.08869 14.9349 8.20034 14.9852 8.32324C15.0355 8.44613 15.0608 8.57781 15.0596 8.71059C15.0585 8.84337 15.0309 8.97459 14.9785 9.0966C14.9261 9.2186 14.8499 9.32895 14.7544 9.42119L10.7544 13.4212C10.5669 13.6087 10.3126 13.714 10.0474 13.714C9.78223 13.714 9.52792 13.6087 9.34039 13.4212L5.34039 9.42119C5.15292 9.23366 5.04761 8.97936 5.04761 8.71419C5.04761 8.44903 5.15292 8.19472 5.34039 8.00719Z" fill="#CDCCCA"/>
</svg>
